<?xml version="1.0" encoding="utf-8"?>
<svg xmlns="http://www.w3.org/2000/svg" xmlns:xlink="http://www.w3.org/1999/xlink" width="600" height="450" viewBox="0 0 600 450">
<defs>
  <clipPath id="clip5800">
    <rect x="75" y="33" width="481" height="361"/>
  </clipPath>
</defs>
<defs>
  <clipPath id="clip5801">
    <rect x="0" y="0" width="600" height="450"/>
  </clipPath>
</defs>
<polyline clip-path="url(#clip5801)" style="stroke:#ededed; stroke-width:1.05; stroke-opacity:1; fill:none" points="
  75,364.95 555,364.95 
  "/>
<polyline clip-path="url(#clip5801)" style="stroke:#ededed; stroke-width:1.05; stroke-opacity:1; fill:none" points="
  75,336.15 555,336.15 
  "/>
<polyline clip-path="url(#clip5801)" style="stroke:#ededed; stroke-width:1.05; stroke-opacity:1; fill:none" points="
  75,307.35 555,307.35 
  "/>
<polyline clip-path="url(#clip5801)" style="stroke:#cccccc; stroke-width:1.05; stroke-opacity:1; fill:none" points="
  75,278.55 555,278.55 
  "/>
<polyline clip-path="url(#clip5801)" style="stroke:#ededed; stroke-width:1.05; stroke-opacity:1; fill:none" points="
  75,249.75 555,249.75 
  "/>
<polyline clip-path="url(#clip5801)" style="stroke:#ededed; stroke-width:1.05; stroke-opacity:1; fill:none" points="
  75,220.95 555,220.95 
  "/>
<polyline clip-path="url(#clip5801)" style="stroke:#ededed; stroke-width:1.05; stroke-opacity:1; fill:none" points="
  75,192.15 555,192.15 
  "/>
<polyline clip-path="url(#clip5801)" style="stroke:#ededed; stroke-width:1.05; stroke-opacity:1; fill:none" points="
  75,163.35 555,163.35 
  "/>
<polyline clip-path="url(#clip5801)" style="stroke:#cccccc; stroke-width:1.05; stroke-opacity:1; fill:none" points="
  75,134.55 555,134.55 
  "/>
<polyline clip-path="url(#clip5801)" style="stroke:#ededed; stroke-width:1.05; stroke-opacity:1; fill:none" points="
  75,105.75 555,105.75 
  "/>
<polyline clip-path="url(#clip5801)" style="stroke:#ededed; stroke-width:1.05; stroke-opacity:1; fill:none" points="
  75,76.95 555,76.95 
  "/>
<polyline clip-path="url(#clip5801)" style="stroke:#ededed; stroke-width:1.05; stroke-opacity:1; fill:none" points="
  75,48.15 555,48.15 
  "/>
<polyline clip-path="url(#clip5801)" style="stroke:#ededed; stroke-width:1.05; stroke-opacity:1; fill:none" points="
  102.429,393.75 102.429,33.75 
  "/>
<polyline clip-path="url(#clip5801)" style="stroke:#ededed; stroke-width:1.05; stroke-opacity:1; fill:none" points="
  129.857,393.75 129.857,33.75 
  "/>
<polyline clip-path="url(#clip5801)" style="stroke:#ededed; stroke-width:1.05; stroke-opacity:1; fill:none" points="
  157.286,393.75 157.286,33.75 
  "/>
<polyline clip-path="url(#clip5801)" style="stroke:#ededed; stroke-width:1.05; stroke-opacity:1; fill:none" points="
  184.714,393.75 184.714,33.75 
  "/>
<polyline clip-path="url(#clip5801)" style="stroke:#cccccc; stroke-width:1.05; stroke-opacity:1; fill:none" points="
  212.143,393.75 212.143,33.75 
  "/>
<polyline clip-path="url(#clip5801)" style="stroke:#ededed; stroke-width:1.05; stroke-opacity:1; fill:none" points="
  239.571,393.75 239.571,33.75 
  "/>
<polyline clip-path="url(#clip5801)" style="stroke:#ededed; stroke-width:1.05; stroke-opacity:1; fill:none" points="
  267,393.75 267,33.75 
  "/>
<polyline clip-path="url(#clip5801)" style="stroke:#ededed; stroke-width:1.05; stroke-opacity:1; fill:none" points="
  294.429,393.75 294.429,33.75 
  "/>
<polyline clip-path="url(#clip5801)" style="stroke:#ededed; stroke-width:1.05; stroke-opacity:1; fill:none" points="
  321.857,393.75 321.857,33.75 
  "/>
<polyline clip-path="url(#clip5801)" style="stroke:#cccccc; stroke-width:1.05; stroke-opacity:1; fill:none" points="
  349.286,393.75 349.286,33.75 
  "/>
<polyline clip-path="url(#clip5801)" style="stroke:#ededed; stroke-width:1.05; stroke-opacity:1; fill:none" points="
  376.714,393.75 376.714,33.75 
  "/>
<polyline clip-path="url(#clip5801)" style="stroke:#ededed; stroke-width:1.05; stroke-opacity:1; fill:none" points="
  404.143,393.75 404.143,33.75 
  "/>
<polyline clip-path="url(#clip5801)" style="stroke:#ededed; stroke-width:1.05; stroke-opacity:1; fill:none" points="
  431.571,393.75 431.571,33.75 
  "/>
<polyline clip-path="url(#clip5801)" style="stroke:#ededed; stroke-width:1.05; stroke-opacity:1; fill:none" points="
  459,393.75 459,33.75 
  "/>
<polyline clip-path="url(#clip5801)" style="stroke:#cccccc; stroke-width:1.05; stroke-opacity:1; fill:none" points="
  486.429,393.75 486.429,33.75 
  "/>
<polyline clip-path="url(#clip5801)" style="stroke:#ededed; stroke-width:1.05; stroke-opacity:1; fill:none" points="
  513.857,393.75 513.857,33.75 
  "/>
<polyline clip-path="url(#clip5801)" style="stroke:#ededed; stroke-width:1.05; stroke-opacity:1; fill:none" points="
  541.286,393.75 541.286,33.75 
  "/>
<g clip-path="url(#clip5801)">
<text style="fill:#000000; fill-opacity:1; font-family:Arial,Helvetica Neue,Helvetica,sans-serif; font-size:15; text-anchor:start;" transform="rotate(0, 41.2287, 282.816)" x="41.2287" y="282.816">0.01</text>
</g>
<g clip-path="url(#clip5801)">
<text style="fill:#000000; fill-opacity:1; font-family:Arial,Helvetica Neue,Helvetica,sans-serif; font-size:15; text-anchor:start;" transform="rotate(0, 41.2287, 138.816)" x="41.2287" y="138.816">0.02</text>
</g>
<polyline clip-path="url(#clip5801)" style="stroke:#000000; stroke-width:1.05; stroke-opacity:1; fill:none" points="
  75,393.75 75,393.75 79.5,393.75 75,393.75 75,364.95 79.5,364.95 75,364.95 75,336.15 79.5,336.15 75,336.15 
  75,307.35 79.5,307.35 75,307.35 75,278.55 84,278.55 75,278.55 75,249.75 79.5,249.75 75,249.75 75,220.95 
  79.5,220.95 75,220.95 75,192.15 79.5,192.15 75,192.15 75,163.35 79.5,163.35 75,163.35 75,134.55 84,134.55 
  75,134.55 75,105.75 79.5,105.75 75,105.75 75,76.95 79.5,76.95 75,76.95 75,48.15 79.5,48.15 75,48.15 
  75,33.75 
  "/>
<g clip-path="url(#clip5801)">
<text style="fill:#000000; fill-opacity:1; font-family:Arial,Helvetica Neue,Helvetica,sans-serif; font-size:15; text-anchor:start;" transform="rotate(0, 70.8184, 411.642)" x="70.8184" y="411.642">0</text>
</g>
<g clip-path="url(#clip5801)">
<text style="fill:#000000; fill-opacity:1; font-family:Arial,Helvetica Neue,Helvetica,sans-serif; font-size:15; text-anchor:start;" transform="rotate(0, 203.78, 411.642)" x="203.78" y="411.642">20</text>
</g>
<g clip-path="url(#clip5801)">
<text style="fill:#000000; fill-opacity:1; font-family:Arial,Helvetica Neue,Helvetica,sans-serif; font-size:15; text-anchor:start;" transform="rotate(0, 340.922, 411.642)" x="340.922" y="411.642">40</text>
</g>
<g clip-path="url(#clip5801)">
<text style="fill:#000000; fill-opacity:1; font-family:Arial,Helvetica Neue,Helvetica,sans-serif; font-size:15; text-anchor:start;" transform="rotate(0, 478.065, 411.642)" x="478.065" y="411.642">60</text>
</g>
<polyline clip-path="url(#clip5801)" style="stroke:#000000; stroke-width:1.05; stroke-opacity:1; fill:none" points="
  75,393.75 75,393.75 75,384.75 75,393.75 102.429,393.75 102.429,389.25 102.429,393.75 129.857,393.75 129.857,389.25 129.857,393.75 
  157.286,393.75 157.286,389.25 157.286,393.75 184.714,393.75 184.714,389.25 184.714,393.75 212.143,393.75 212.143,384.75 212.143,393.75 239.571,393.75 
  239.571,389.25 239.571,393.75 267,393.75 267,389.25 267,393.75 294.429,393.75 294.429,389.25 294.429,393.75 321.857,393.75 321.857,389.25 
  321.857,393.75 349.286,393.75 349.286,384.75 349.286,393.75 376.714,393.75 376.714,389.25 376.714,393.75 404.143,393.75 404.143,389.25 404.143,393.75 
  431.571,393.75 431.571,389.25 431.571,393.75 459,393.75 459,389.25 459,393.75 486.429,393.75 486.429,384.75 486.429,393.75 513.857,393.75 
  513.857,389.25 513.857,393.75 541.286,393.75 541.286,389.25 541.286,393.75 555,393.75 
  "/>
<polyline clip-path="url(#clip5801)" style="stroke:#000000; stroke-width:1.05; stroke-opacity:1; fill:none" points="
  555,393.75 555,393.75 550.5,393.75 555,393.75 555,364.95 550.5,364.95 555,364.95 555,336.15 550.5,336.15 555,336.15 
  555,307.35 550.5,307.35 555,307.35 555,278.55 546,278.55 555,278.55 555,249.75 550.5,249.75 555,249.75 555,220.95 
  550.5,220.95 555,220.95 555,192.15 550.5,192.15 555,192.15 555,163.35 550.5,163.35 555,163.35 555,134.55 546,134.55 
  555,134.55 555,105.75 550.5,105.75 555,105.75 555,76.95 550.5,76.95 555,76.95 555,48.15 550.5,48.15 555,48.15 
  555,33.75 
  "/>
<polyline clip-path="url(#clip5801)" style="stroke:#000000; stroke-width:1.05; stroke-opacity:1; fill:none" points="
  75,33.75 75,33.75 75,42.75 75,33.75 102.429,33.75 102.429,38.25 102.429,33.75 129.857,33.75 129.857,38.25 129.857,33.75 
  157.286,33.75 157.286,38.25 157.286,33.75 184.714,33.75 184.714,38.25 184.714,33.75 212.143,33.75 212.143,42.75 212.143,33.75 239.571,33.75 
  239.571,38.25 239.571,33.75 267,33.75 267,38.25 267,33.75 294.429,33.75 294.429,38.25 294.429,33.75 321.857,33.75 321.857,38.25 
  321.857,33.75 349.286,33.75 349.286,42.75 349.286,33.75 376.714,33.75 376.714,38.25 376.714,33.75 404.143,33.75 404.143,38.25 404.143,33.75 
  431.571,33.75 431.571,38.25 431.571,33.75 459,33.75 459,38.25 459,33.75 486.429,33.75 486.429,42.75 486.429,33.75 513.857,33.75 
  513.857,38.25 513.857,33.75 541.286,33.75 541.286,38.25 541.286,33.75 555,33.75 
  "/>
<g clip-path="url(#clip5801)">
<text style="fill:#000000; fill-opacity:1; font-family:Arial,Helvetica Neue,Helvetica,sans-serif; font-size:15; text-anchor:middle;" transform="rotate(0, 315, 442.4)" x="315" y="442.4">x</text>
</g>
<g clip-path="url(#clip5801)">
<text style="fill:#000000; fill-opacity:1; font-family:Arial,Helvetica Neue,Helvetica,sans-serif; font-size:15; text-anchor:middle;" transform="rotate(-90, 18.6, 213.75)" x="18.6" y="213.75">p</text>
</g>
<polyline clip-path="url(#clip5800)" style="stroke:#00528a; stroke-width:1.05; stroke-opacity:1; fill:none" points="
  75,341.301 81.8571,350.026 88.7143,347.249 95.5714,342.258 102.429,332.698 109.286,328.204 116.143,306.473 123,296.839 129.857,268.281 136.714,304.169 
  143.571,247.126 150.429,253.174 157.286,242.616 164.143,212.879 171,190.063 177.857,171.161 184.714,173.771 191.571,161.035 198.429,158.367 205.286,133.952 
  212.143,144.005 219,89.8802 225.857,113.611 232.714,96.0315 239.571,86.1985 246.429,70.2423 253.286,57.212 260.143,42.1935 267,55.4662 273.857,40.5538 
  280.714,55.1772 287.571,37.0026 294.429,38.0741 301.286,55.0129 308.143,46.166 315,68.149 321.857,61.0014 328.714,65.6701 335.571,81.7289 342.429,88.9086 
  349.286,84.234 356.143,122.449 363,133.573 369.857,145.486 376.714,171.749 383.571,175.157 390.429,188.325 397.286,200.062 404.143,224.319 411,223.632 
  417.857,243.219 424.714,245.014 431.571,251.823 438.429,294.817 445.286,289.628 452.143,295.556 459,293.686 465.857,368.525 472.714,316.233 479.571,356.215 
  486.429,347.557 493.286,363.202 500.143,381.365 507,373.451 
  "/>
<polyline clip-path="url(#clip5800)" style="stroke:#ff6700; stroke-width:1.05; stroke-opacity:1; fill:none" points="
  81.8571,361.387 88.7143,353.783 95.5714,345.535 102.429,336.633 109.286,327.077 116.143,316.871 123,306.03 129.857,294.577 136.714,282.548 143.571,269.984 
  150.429,256.941 157.286,243.484 164.143,229.688 171,215.64 177.857,201.433 184.714,187.172 191.571,172.969 198.429,158.94 205.286,145.207 212.143,131.897 
  219,119.136 225.857,107.05 232.714,95.7605 239.571,85.3871 246.429,76.0406 253.286,67.8234 260.143,60.827 267,55.1307 273.857,50.7997 280.714,47.884 
  287.571,46.4176 294.429,46.4176 301.286,47.884 308.143,50.7997 315,55.1307 321.857,60.827 328.714,67.8234 335.571,76.0406 342.429,85.3871 349.286,95.7605 
  356.143,107.05 363,119.136 369.857,131.897 376.714,145.207 383.571,158.94 390.429,172.969 397.286,187.172 404.143,201.433 411,215.64 417.857,229.688 
  424.714,243.484 431.571,256.941 438.429,269.984 445.286,282.548 452.143,294.577 459,306.03 465.857,316.871 472.714,327.077 479.571,336.633 486.429,345.535 
  493.286,353.783 500.143,361.387 507,368.363 513.857,374.73 
  "/>
</svg>
