<?xml version="1.0" encoding="utf-8"?>
<svg xmlns="http://www.w3.org/2000/svg" xmlns:xlink="http://www.w3.org/1999/xlink" width="600" height="450" viewBox="0 0 600 450">
<defs>
  <clipPath id="clip4700">
    <rect x="75" y="33" width="481" height="361"/>
  </clipPath>
</defs>
<defs>
  <clipPath id="clip4701">
    <rect x="0" y="0" width="600" height="450"/>
  </clipPath>
</defs>
<polyline clip-path="url(#clip4701)" style="stroke:#ededed; stroke-width:1.05; stroke-opacity:1; fill:none" points="
  75,378.75 555,378.75 
  "/>
<polyline clip-path="url(#clip4701)" style="stroke:#cccccc; stroke-width:1.05; stroke-opacity:1; fill:none" points="
  75,363.75 555,363.75 
  "/>
<polyline clip-path="url(#clip4701)" style="stroke:#ededed; stroke-width:1.05; stroke-opacity:1; fill:none" points="
  75,348.75 555,348.75 
  "/>
<polyline clip-path="url(#clip4701)" style="stroke:#ededed; stroke-width:1.05; stroke-opacity:1; fill:none" points="
  75,333.75 555,333.75 
  "/>
<polyline clip-path="url(#clip4701)" style="stroke:#ededed; stroke-width:1.05; stroke-opacity:1; fill:none" points="
  75,318.75 555,318.75 
  "/>
<polyline clip-path="url(#clip4701)" style="stroke:#ededed; stroke-width:1.05; stroke-opacity:1; fill:none" points="
  75,303.75 555,303.75 
  "/>
<polyline clip-path="url(#clip4701)" style="stroke:#cccccc; stroke-width:1.05; stroke-opacity:1; fill:none" points="
  75,288.75 555,288.75 
  "/>
<polyline clip-path="url(#clip4701)" style="stroke:#ededed; stroke-width:1.05; stroke-opacity:1; fill:none" points="
  75,273.75 555,273.75 
  "/>
<polyline clip-path="url(#clip4701)" style="stroke:#ededed; stroke-width:1.05; stroke-opacity:1; fill:none" points="
  75,258.75 555,258.75 
  "/>
<polyline clip-path="url(#clip4701)" style="stroke:#ededed; stroke-width:1.05; stroke-opacity:1; fill:none" points="
  75,243.75 555,243.75 
  "/>
<polyline clip-path="url(#clip4701)" style="stroke:#ededed; stroke-width:1.05; stroke-opacity:1; fill:none" points="
  75,228.75 555,228.75 
  "/>
<polyline clip-path="url(#clip4701)" style="stroke:#cccccc; stroke-width:1.05; stroke-opacity:1; fill:none" points="
  75,213.75 555,213.75 
  "/>
<polyline clip-path="url(#clip4701)" style="stroke:#ededed; stroke-width:1.05; stroke-opacity:1; fill:none" points="
  75,198.75 555,198.75 
  "/>
<polyline clip-path="url(#clip4701)" style="stroke:#ededed; stroke-width:1.05; stroke-opacity:1; fill:none" points="
  75,183.75 555,183.75 
  "/>
<polyline clip-path="url(#clip4701)" style="stroke:#ededed; stroke-width:1.05; stroke-opacity:1; fill:none" points="
  75,168.75 555,168.75 
  "/>
<polyline clip-path="url(#clip4701)" style="stroke:#ededed; stroke-width:1.05; stroke-opacity:1; fill:none" points="
  75,153.75 555,153.75 
  "/>
<polyline clip-path="url(#clip4701)" style="stroke:#cccccc; stroke-width:1.05; stroke-opacity:1; fill:none" points="
  75,138.75 555,138.75 
  "/>
<polyline clip-path="url(#clip4701)" style="stroke:#ededed; stroke-width:1.05; stroke-opacity:1; fill:none" points="
  75,123.75 555,123.75 
  "/>
<polyline clip-path="url(#clip4701)" style="stroke:#ededed; stroke-width:1.05; stroke-opacity:1; fill:none" points="
  75,108.75 555,108.75 
  "/>
<polyline clip-path="url(#clip4701)" style="stroke:#ededed; stroke-width:1.05; stroke-opacity:1; fill:none" points="
  75,93.75 555,93.75 
  "/>
<polyline clip-path="url(#clip4701)" style="stroke:#ededed; stroke-width:1.05; stroke-opacity:1; fill:none" points="
  75,78.75 555,78.75 
  "/>
<polyline clip-path="url(#clip4701)" style="stroke:#cccccc; stroke-width:1.05; stroke-opacity:1; fill:none" points="
  75,63.75 555,63.75 
  "/>
<polyline clip-path="url(#clip4701)" style="stroke:#ededed; stroke-width:1.05; stroke-opacity:1; fill:none" points="
  75,48.75 555,48.75 
  "/>
<polyline clip-path="url(#clip4701)" style="stroke:#ededed; stroke-width:1.05; stroke-opacity:1; fill:none" points="
  102.429,393.75 102.429,33.75 
  "/>
<polyline clip-path="url(#clip4701)" style="stroke:#ededed; stroke-width:1.05; stroke-opacity:1; fill:none" points="
  129.857,393.75 129.857,33.75 
  "/>
<polyline clip-path="url(#clip4701)" style="stroke:#ededed; stroke-width:1.05; stroke-opacity:1; fill:none" points="
  157.286,393.75 157.286,33.75 
  "/>
<polyline clip-path="url(#clip4701)" style="stroke:#ededed; stroke-width:1.05; stroke-opacity:1; fill:none" points="
  184.714,393.75 184.714,33.75 
  "/>
<polyline clip-path="url(#clip4701)" style="stroke:#cccccc; stroke-width:1.05; stroke-opacity:1; fill:none" points="
  212.143,393.75 212.143,33.75 
  "/>
<polyline clip-path="url(#clip4701)" style="stroke:#ededed; stroke-width:1.05; stroke-opacity:1; fill:none" points="
  239.571,393.75 239.571,33.75 
  "/>
<polyline clip-path="url(#clip4701)" style="stroke:#ededed; stroke-width:1.05; stroke-opacity:1; fill:none" points="
  267,393.75 267,33.75 
  "/>
<polyline clip-path="url(#clip4701)" style="stroke:#ededed; stroke-width:1.05; stroke-opacity:1; fill:none" points="
  294.429,393.75 294.429,33.75 
  "/>
<polyline clip-path="url(#clip4701)" style="stroke:#ededed; stroke-width:1.05; stroke-opacity:1; fill:none" points="
  321.857,393.75 321.857,33.75 
  "/>
<polyline clip-path="url(#clip4701)" style="stroke:#cccccc; stroke-width:1.05; stroke-opacity:1; fill:none" points="
  349.286,393.75 349.286,33.75 
  "/>
<polyline clip-path="url(#clip4701)" style="stroke:#ededed; stroke-width:1.05; stroke-opacity:1; fill:none" points="
  376.714,393.75 376.714,33.75 
  "/>
<polyline clip-path="url(#clip4701)" style="stroke:#ededed; stroke-width:1.05; stroke-opacity:1; fill:none" points="
  404.143,393.75 404.143,33.75 
  "/>
<polyline clip-path="url(#clip4701)" style="stroke:#ededed; stroke-width:1.05; stroke-opacity:1; fill:none" points="
  431.571,393.75 431.571,33.75 
  "/>
<polyline clip-path="url(#clip4701)" style="stroke:#ededed; stroke-width:1.05; stroke-opacity:1; fill:none" points="
  459,393.75 459,33.75 
  "/>
<polyline clip-path="url(#clip4701)" style="stroke:#cccccc; stroke-width:1.05; stroke-opacity:1; fill:none" points="
  486.429,393.75 486.429,33.75 
  "/>
<polyline clip-path="url(#clip4701)" style="stroke:#ededed; stroke-width:1.05; stroke-opacity:1; fill:none" points="
  513.857,393.75 513.857,33.75 
  "/>
<polyline clip-path="url(#clip4701)" style="stroke:#ededed; stroke-width:1.05; stroke-opacity:1; fill:none" points="
  541.286,393.75 541.286,33.75 
  "/>
<g clip-path="url(#clip4701)">
<text style="fill:#000000; fill-opacity:1; font-family:Arial,Helvetica Neue,Helvetica,sans-serif; font-size:15; text-anchor:start;" transform="rotate(0, 32.8655, 368.016)" x="32.8655" y="368.016">0.005</text>
</g>
<g clip-path="url(#clip4701)">
<text style="fill:#000000; fill-opacity:1; font-family:Arial,Helvetica Neue,Helvetica,sans-serif; font-size:15; text-anchor:start;" transform="rotate(0, 32.8655, 293.016)" x="32.8655" y="293.016">0.010</text>
</g>
<g clip-path="url(#clip4701)">
<text style="fill:#000000; fill-opacity:1; font-family:Arial,Helvetica Neue,Helvetica,sans-serif; font-size:15; text-anchor:start;" transform="rotate(0, 32.8655, 218.016)" x="32.8655" y="218.016">0.015</text>
</g>
<g clip-path="url(#clip4701)">
<text style="fill:#000000; fill-opacity:1; font-family:Arial,Helvetica Neue,Helvetica,sans-serif; font-size:15; text-anchor:start;" transform="rotate(0, 32.8655, 143.016)" x="32.8655" y="143.016">0.020</text>
</g>
<g clip-path="url(#clip4701)">
<text style="fill:#000000; fill-opacity:1; font-family:Arial,Helvetica Neue,Helvetica,sans-serif; font-size:15; text-anchor:start;" transform="rotate(0, 32.8655, 68.016)" x="32.8655" y="68.016">0.025</text>
</g>
<polyline clip-path="url(#clip4701)" style="stroke:#000000; stroke-width:1.05; stroke-opacity:1; fill:none" points="
  75,393.75 75,393.75 79.5,393.75 75,393.75 75,378.75 79.5,378.75 75,378.75 75,363.75 84,363.75 75,363.75 
  75,348.75 79.5,348.75 75,348.75 75,333.75 79.5,333.75 75,333.75 75,318.75 79.5,318.75 75,318.75 75,303.75 
  79.5,303.75 75,303.75 75,288.75 84,288.75 75,288.75 75,273.75 79.5,273.75 75,273.75 75,258.75 79.5,258.75 
  75,258.75 75,243.75 79.5,243.75 75,243.75 75,228.75 79.5,228.75 75,228.75 75,213.75 84,213.75 75,213.75 
  75,198.75 79.5,198.75 75,198.75 75,183.75 79.5,183.75 75,183.75 75,168.75 79.5,168.75 75,168.75 75,153.75 
  79.5,153.75 75,153.75 75,138.75 84,138.75 75,138.75 75,123.75 79.5,123.75 75,123.75 75,108.75 79.5,108.75 
  75,108.75 75,93.75 79.5,93.75 75,93.75 75,78.75 79.5,78.75 75,78.75 75,63.75 84,63.75 75,63.75 
  75,48.75 79.5,48.75 75,48.75 75,33.75 79.5,33.75 75,33.75 75,33.75 
  "/>
<g clip-path="url(#clip4701)">
<text style="fill:#000000; fill-opacity:1; font-family:Arial,Helvetica Neue,Helvetica,sans-serif; font-size:15; text-anchor:start;" transform="rotate(0, 70.8184, 411.642)" x="70.8184" y="411.642">0</text>
</g>
<g clip-path="url(#clip4701)">
<text style="fill:#000000; fill-opacity:1; font-family:Arial,Helvetica Neue,Helvetica,sans-serif; font-size:15; text-anchor:start;" transform="rotate(0, 203.78, 411.642)" x="203.78" y="411.642">20</text>
</g>
<g clip-path="url(#clip4701)">
<text style="fill:#000000; fill-opacity:1; font-family:Arial,Helvetica Neue,Helvetica,sans-serif; font-size:15; text-anchor:start;" transform="rotate(0, 340.922, 411.642)" x="340.922" y="411.642">40</text>
</g>
<g clip-path="url(#clip4701)">
<text style="fill:#000000; fill-opacity:1; font-family:Arial,Helvetica Neue,Helvetica,sans-serif; font-size:15; text-anchor:start;" transform="rotate(0, 478.065, 411.642)" x="478.065" y="411.642">60</text>
</g>
<polyline clip-path="url(#clip4701)" style="stroke:#000000; stroke-width:1.05; stroke-opacity:1; fill:none" points="
  75,393.75 75,393.75 75,384.75 75,393.75 102.429,393.75 102.429,389.25 102.429,393.75 129.857,393.75 129.857,389.25 129.857,393.75 
  157.286,393.75 157.286,389.25 157.286,393.75 184.714,393.75 184.714,389.25 184.714,393.75 212.143,393.75 212.143,384.75 212.143,393.75 239.571,393.75 
  239.571,389.25 239.571,393.75 267,393.75 267,389.25 267,393.75 294.429,393.75 294.429,389.25 294.429,393.75 321.857,393.75 321.857,389.25 
  321.857,393.75 349.286,393.75 349.286,384.75 349.286,393.75 376.714,393.75 376.714,389.25 376.714,393.75 404.143,393.75 404.143,389.25 404.143,393.75 
  431.571,393.75 431.571,389.25 431.571,393.75 459,393.75 459,389.25 459,393.75 486.429,393.75 486.429,384.75 486.429,393.75 513.857,393.75 
  513.857,389.25 513.857,393.75 541.286,393.75 541.286,389.25 541.286,393.75 555,393.75 
  "/>
<polyline clip-path="url(#clip4701)" style="stroke:#000000; stroke-width:1.05; stroke-opacity:1; fill:none" points="
  555,393.75 555,393.75 550.5,393.75 555,393.75 555,378.75 550.5,378.75 555,378.75 555,363.75 546,363.75 555,363.75 
  555,348.75 550.5,348.75 555,348.75 555,333.75 550.5,333.75 555,333.75 555,318.75 550.5,318.75 555,318.75 555,303.75 
  550.5,303.75 555,303.75 555,288.75 546,288.75 555,288.75 555,273.75 550.5,273.75 555,273.75 555,258.75 550.5,258.75 
  555,258.75 555,243.75 550.5,243.75 555,243.75 555,228.75 550.5,228.75 555,228.75 555,213.75 546,213.75 555,213.75 
  555,198.75 550.5,198.75 555,198.75 555,183.75 550.5,183.75 555,183.75 555,168.75 550.5,168.75 555,168.75 555,153.75 
  550.5,153.75 555,153.75 555,138.75 546,138.75 555,138.75 555,123.75 550.5,123.75 555,123.75 555,108.75 550.5,108.75 
  555,108.75 555,93.75 550.5,93.75 555,93.75 555,78.75 550.5,78.75 555,78.75 555,63.75 546,63.75 555,63.75 
  555,48.75 550.5,48.75 555,48.75 555,33.75 550.5,33.75 555,33.75 555,33.75 
  "/>
<polyline clip-path="url(#clip4701)" style="stroke:#000000; stroke-width:1.05; stroke-opacity:1; fill:none" points="
  75,33.75 75,33.75 75,42.75 75,33.75 102.429,33.75 102.429,38.25 102.429,33.75 129.857,33.75 129.857,38.25 129.857,33.75 
  157.286,33.75 157.286,38.25 157.286,33.75 184.714,33.75 184.714,38.25 184.714,33.75 212.143,33.75 212.143,42.75 212.143,33.75 239.571,33.75 
  239.571,38.25 239.571,33.75 267,33.75 267,38.25 267,33.75 294.429,33.75 294.429,38.25 294.429,33.75 321.857,33.75 321.857,38.25 
  321.857,33.75 349.286,33.75 349.286,42.75 349.286,33.75 376.714,33.75 376.714,38.25 376.714,33.75 404.143,33.75 404.143,38.25 404.143,33.75 
  431.571,33.75 431.571,38.25 431.571,33.75 459,33.75 459,38.25 459,33.75 486.429,33.75 486.429,42.75 486.429,33.75 513.857,33.75 
  513.857,38.25 513.857,33.75 541.286,33.75 541.286,38.25 541.286,33.75 555,33.75 
  "/>
<polyline clip-path="url(#clip4700)" style="stroke:#00528a; stroke-width:1.05; stroke-opacity:1; fill:none" points="
  75,375.039 81.8571,367.118 88.7143,358.526 95.5714,349.253 102.429,339.299 109.286,328.667 116.143,317.375 123,305.445 129.857,292.914 136.714,279.827 
  143.571,266.241 150.429,252.223 157.286,237.853 164.143,223.219 171,208.42 177.857,193.565 184.714,178.769 191.571,164.156 198.429,149.851 205.286,135.987 
  212.143,122.694 219,110.104 225.857,98.3443 232.714,87.5387 239.571,77.8027 246.429,69.2431 253.286,61.9553 260.143,56.0216 267,51.5101 273.857,48.473 
  280.714,46.9455 287.571,46.9455 294.429,48.473 301.286,51.5101 308.143,56.0216 315,61.9553 321.857,69.2431 328.714,77.8027 335.571,87.5387 342.429,98.3443 
  349.286,110.104 356.143,122.694 363,135.987 369.857,149.851 376.714,164.156 383.571,178.769 390.429,193.565 397.286,208.42 404.143,223.219 411,237.853 
  417.857,252.223 424.714,266.241 431.571,279.827 438.429,292.914 445.286,305.445 452.143,317.375 459,328.667 465.857,339.299 472.714,349.253 479.571,358.526 
  486.429,367.118 493.286,375.039 500.143,382.305 507,388.938 
  "/>
</svg>
