<?xml version="1.0" encoding="UTF-8"?>
<svg xmlns="http://www.w3.org/2000/svg"
     xmlns:xlink="http://www.w3.org/1999/xlink"
     version="1.2"
     width="180mm" height="90mm" viewBox="0 0 180 90"
     stroke="none"
     fill="#000000"
     stroke-width="0.3"
     font-size="3.88"
>
<defs>
  <marker id="arrow" markerWidth="15" markerHeight="7" refX="5" refY="3.5" orient="auto" markerUnits="strokeWidth">
    <path d="M0,0 L15,3.5 L0,7 z" stroke="context-stroke" fill="context-stroke"/>
  </marker>
</defs>
<g stroke-width="0.49" fill="#000000" fill-opacity="0.000" stroke="#D3D3D3" id="img-da40df16-1">
  <g transform="translate(20.77,7.5)">
    <path fill="none" d="M-2.88,0 L 2.88 0" class="primitive"/>
  </g>
  <g transform="translate(136.15,7.5)">
    <path fill="none" d="M2.88,0 L -2.88 0" class="primitive"/>
  </g>
  <g transform="translate(20.77,32.5)">
    <path fill="none" d="M-2.88,0 L 2.88 0" class="primitive"/>
  </g>
  <g transform="translate(136.15,32.5)">
    <path fill="none" d="M2.88,0 L -2.88 0" class="primitive"/>
  </g>
  <g transform="translate(26.54,57.5)">
    <path fill="none" d="M-8.65,0 L 8.65 0" class="primitive"/>
  </g>
  <g transform="translate(136.15,57.5)">
    <path fill="none" d="M2.88,0 L -2.88 0" class="primitive"/>
  </g>
  <g transform="translate(20.77,82.5)">
    <path fill="none" d="M-2.88,0 L 2.88 0" class="primitive"/>
  </g>
  <g transform="translate(159.23,82.5)">
    <path fill="none" d="M2.88,0 L -2.88 0" class="primitive"/>
  </g>
  <g transform="translate(32.31,7.5)">
    <path fill="none" d="M-2.88,0 L 2.88 0" class="primitive"/>
  </g>
  <g transform="translate(43.85,7.5)">
    <path fill="none" d="M-2.88,0 L 2.88 0" class="primitive"/>
  </g>
  <g transform="translate(66.92,7.5)">
    <path fill="none" d="M-14.42,0 L 14.42 0" class="primitive"/>
  </g>
  <g transform="translate(55.38,82.5)">
    <path fill="none" d="M-25.96,0 L 25.96 0" class="primitive"/>
  </g>
  <g transform="translate(84.23,26.25)">
    <path fill="none" d="M0,-17.31 L 0 17.31" class="primitive"/>
  </g>
  <g transform="translate(90,7.5)">
    <path fill="none" d="M-2.88,0 L 2.88 0" class="primitive"/>
  </g>
  <g transform="translate(84.23,63.75)">
    <path fill="none" d="M0,17.31 L 0 -17.31" class="primitive"/>
  </g>
  <g transform="translate(90,82.5)">
    <path fill="none" d="M-2.88,0 L 2.88 0" class="primitive"/>
  </g>
  <g transform="translate(95.77,45)">
    <path fill="none" d="M0,36.06 L 0 -36.06" class="primitive"/>
  </g>
  <g transform="translate(101.54,82.5)">
    <path fill="none" d="M-2.88,0 L 2.88 0" class="primitive"/>
  </g>
  <g transform="translate(101.54,7.5)">
    <path fill="none" d="M-2.88,0 L 2.88 0" class="primitive"/>
  </g>
  <g transform="translate(113.08,7.5)">
    <path fill="none" d="M-2.88,0 L 2.88 0" class="primitive"/>
  </g>
  <g transform="translate(113.08,82.5)">
    <path fill="none" d="M-2.88,0 L 2.88 0" class="primitive"/>
  </g>
  <g transform="translate(124.62,7.5)">
    <path fill="none" d="M-2.88,0 L 2.88 0" class="primitive"/>
  </g>
  <g transform="translate(124.62,82.5)">
    <path fill="none" d="M-2.88,0 L 2.88 0" class="primitive"/>
  </g>
  <g transform="translate(136.15,82.5)">
    <path fill="none" d="M-2.88,0 L 2.88 0" class="primitive"/>
  </g>
  <g transform="translate(147.69,82.5)">
    <path fill="none" d="M-2.88,0 L 2.88 0" class="primitive"/>
  </g>
  <g transform="translate(32.31,32.5)">
    <path fill="none" d="M-2.88,0 L 2.88 0" class="primitive"/>
  </g>
  <g transform="translate(38.08,45)">
    <path fill="none" d="M0,-11.06 L 0 11.06" class="primitive"/>
  </g>
  <g transform="translate(43.85,32.5)">
    <path fill="none" d="M-2.88,0 L 2.88 0" class="primitive"/>
  </g>
  <g transform="translate(49.62,57.5)">
    <path fill="none" d="M-8.65,0 L 8.65 0" class="primitive"/>
  </g>
  <g transform="translate(55.38,32.5)">
    <path fill="none" d="M-2.88,0 L 2.88 0" class="primitive"/>
  </g>
  <g transform="translate(61.15,45)">
    <path fill="none" d="M0,-11.06 L 0 11.06" class="primitive"/>
  </g>
  <g transform="translate(66.92,32.5)">
    <path fill="none" d="M-2.88,0 L 2.88 0" class="primitive"/>
  </g>
  <g transform="translate(66.92,57.5)">
    <path fill="none" d="M-2.88,0 L 2.88 0" class="primitive"/>
  </g>
  <g transform="translate(90,32.5)">
    <path fill="none" d="M-14.42,0 L 14.42 0" class="primitive"/>
  </g>
  <g transform="translate(90,57.5)">
    <path fill="none" d="M-14.42,0 L 14.42 0" class="primitive"/>
  </g>
  <g transform="translate(118.85,32.5)">
    <path fill="none" d="M-8.65,0 L 8.65 0" class="primitive"/>
  </g>
  <g transform="translate(113.08,57.5)">
    <path fill="none" d="M-2.88,0 L 2.88 0" class="primitive"/>
  </g>
  <g transform="translate(124.62,57.5)">
    <path fill="none" d="M-2.88,0 L 2.88 0" class="primitive"/>
  </g>
  <g transform="translate(130.38,45)">
    <path fill="none" d="M0,-11.06 L 0 11.06" class="primitive"/>
  </g>
</g>
<g stroke-width="0.49" stroke="#D3D3D3" id="img-da40df16-2">
</g>
<g font-size="4" stroke="#000000" stroke-opacity="0.000" fill="#000000" id="img-da40df16-3">
  <g transform="translate(20.77,7.5)">
    <g class="primitive">
      <text text-anchor="middle" dy="0.35em"></text>
    </g>
  </g>
  <g transform="translate(136.15,7.5)">
    <g class="primitive">
      <text text-anchor="middle" dy="0.35em"></text>
    </g>
  </g>
  <g transform="translate(20.77,32.5)">
    <g class="primitive">
      <text text-anchor="middle" dy="0.35em"></text>
    </g>
  </g>
  <g transform="translate(136.15,32.5)">
    <g class="primitive">
      <text text-anchor="middle" dy="0.35em"></text>
    </g>
  </g>
  <g transform="translate(26.54,57.5)">
    <g class="primitive">
      <text text-anchor="middle" dy="0.35em"></text>
    </g>
  </g>
  <g transform="translate(136.15,57.5)">
    <g class="primitive">
      <text text-anchor="middle" dy="0.35em"></text>
    </g>
  </g>
  <g transform="translate(20.77,82.5)">
    <g class="primitive">
      <text text-anchor="middle" dy="0.35em"></text>
    </g>
  </g>
  <g transform="translate(159.23,82.5)">
    <g class="primitive">
      <text text-anchor="middle" dy="0.35em"></text>
    </g>
  </g>
  <g transform="translate(32.31,7.5)">
    <g class="primitive">
      <text text-anchor="middle" dy="0.35em"></text>
    </g>
  </g>
  <g transform="translate(43.85,7.5)">
    <g class="primitive">
      <text text-anchor="middle" dy="0.35em"></text>
    </g>
  </g>
  <g transform="translate(66.92,7.5)">
    <g class="primitive">
      <text text-anchor="middle" dy="0.35em"></text>
    </g>
  </g>
  <g transform="translate(55.38,82.5)">
    <g class="primitive">
      <text text-anchor="middle" dy="0.35em"></text>
    </g>
  </g>
  <g transform="translate(84.23,26.25)">
    <g class="primitive">
      <text text-anchor="middle" dy="0.35em"></text>
    </g>
  </g>
  <g transform="translate(90,7.5)">
    <g class="primitive">
      <text text-anchor="middle" dy="0.35em"></text>
    </g>
  </g>
  <g transform="translate(84.23,63.75)">
    <g class="primitive">
      <text text-anchor="middle" dy="0.35em"></text>
    </g>
  </g>
  <g transform="translate(90,82.5)">
    <g class="primitive">
      <text text-anchor="middle" dy="0.35em"></text>
    </g>
  </g>
  <g transform="translate(95.77,45)">
    <g class="primitive">
      <text text-anchor="middle" dy="0.35em"></text>
    </g>
  </g>
  <g transform="translate(101.54,82.5)">
    <g class="primitive">
      <text text-anchor="middle" dy="0.35em"></text>
    </g>
  </g>
  <g transform="translate(101.54,7.5)">
    <g class="primitive">
      <text text-anchor="middle" dy="0.35em"></text>
    </g>
  </g>
  <g transform="translate(113.08,7.5)">
    <g class="primitive">
      <text text-anchor="middle" dy="0.35em"></text>
    </g>
  </g>
  <g transform="translate(113.08,82.5)">
    <g class="primitive">
      <text text-anchor="middle" dy="0.35em"></text>
    </g>
  </g>
  <g transform="translate(124.62,7.5)">
    <g class="primitive">
      <text text-anchor="middle" dy="0.35em"></text>
    </g>
  </g>
  <g transform="translate(124.62,82.5)">
    <g class="primitive">
      <text text-anchor="middle" dy="0.35em"></text>
    </g>
  </g>
  <g transform="translate(136.15,82.5)">
    <g class="primitive">
      <text text-anchor="middle" dy="0.35em"></text>
    </g>
  </g>
  <g transform="translate(147.69,82.5)">
    <g class="primitive">
      <text text-anchor="middle" dy="0.35em"></text>
    </g>
  </g>
  <g transform="translate(32.31,32.5)">
    <g class="primitive">
      <text text-anchor="middle" dy="0.35em"></text>
    </g>
  </g>
  <g transform="translate(38.08,45)">
    <g class="primitive">
      <text text-anchor="middle" dy="0.35em"></text>
    </g>
  </g>
  <g transform="translate(43.85,32.5)">
    <g class="primitive">
      <text text-anchor="middle" dy="0.35em"></text>
    </g>
  </g>
  <g transform="translate(49.62,57.5)">
    <g class="primitive">
      <text text-anchor="middle" dy="0.35em"></text>
    </g>
  </g>
  <g transform="translate(55.38,32.5)">
    <g class="primitive">
      <text text-anchor="middle" dy="0.35em"></text>
    </g>
  </g>
  <g transform="translate(61.15,45)">
    <g class="primitive">
      <text text-anchor="middle" dy="0.35em"></text>
    </g>
  </g>
  <g transform="translate(66.92,32.5)">
    <g class="primitive">
      <text text-anchor="middle" dy="0.35em"></text>
    </g>
  </g>
  <g transform="translate(66.92,57.5)">
    <g class="primitive">
      <text text-anchor="middle" dy="0.35em"></text>
    </g>
  </g>
  <g transform="translate(90,32.5)">
    <g class="primitive">
      <text text-anchor="middle" dy="0.35em"></text>
    </g>
  </g>
  <g transform="translate(90,57.5)">
    <g class="primitive">
      <text text-anchor="middle" dy="0.35em"></text>
    </g>
  </g>
  <g transform="translate(118.85,32.5)">
    <g class="primitive">
      <text text-anchor="middle" dy="0.35em"></text>
    </g>
  </g>
  <g transform="translate(113.08,57.5)">
    <g class="primitive">
      <text text-anchor="middle" dy="0.35em"></text>
    </g>
  </g>
  <g transform="translate(124.62,57.5)">
    <g class="primitive">
      <text text-anchor="middle" dy="0.35em"></text>
    </g>
  </g>
  <g transform="translate(130.38,45)">
    <g class="primitive">
      <text text-anchor="middle" dy="0.35em"></text>
    </g>
  </g>
</g>
<g stroke-width="0" stroke="#000000" stroke-opacity="0.000" id="img-da40df16-4">
  <g transform="translate(15,7.5)" fill="#ADD8E6">
    <circle cx="0" cy="0" r="2.77" class="primitive"/>
  </g>
  <g transform="translate(141.92,7.5)" fill="#808080">
    <circle cx="0" cy="0" r="2.77" class="primitive"/>
  </g>
  <g transform="translate(15,32.5)" fill="#ADD8E6">
    <circle cx="0" cy="0" r="2.77" class="primitive"/>
  </g>
  <g transform="translate(141.92,32.5)" fill="#808080">
    <circle cx="0" cy="0" r="2.77" class="primitive"/>
  </g>
  <g transform="translate(15,57.5)" fill="#ADD8E6">
    <circle cx="0" cy="0" r="2.77" class="primitive"/>
  </g>
  <g transform="translate(141.92,57.5)" fill="#808080">
    <circle cx="0" cy="0" r="2.77" class="primitive"/>
  </g>
  <g transform="translate(15,82.5)" fill="#ADD8E6">
    <circle cx="0" cy="0" r="2.77" class="primitive"/>
  </g>
  <g transform="translate(165,82.5)" fill="#808080">
    <circle cx="0" cy="0" r="2.77" class="primitive"/>
  </g>
  <g transform="translate(26.54,7.5)" fill="#008000">
    <circle cx="0" cy="0" r="2.77" class="primitive"/>
  </g>
  <g transform="translate(38.08,7.5)" fill="#FFFF00">
    <circle cx="0" cy="0" r="2.77" class="primitive"/>
  </g>
  <g transform="translate(49.62,7.5)" fill="#008000">
    <circle cx="0" cy="0" r="2.77" class="primitive"/>
  </g>
  <g transform="translate(26.54,82.5)" fill="#FFFF00">
    <circle cx="0" cy="0" r="2.77" class="primitive"/>
  </g>
  <g transform="translate(84.23,7.5)" fill="#008000">
    <circle cx="0" cy="0" r="2.77" class="primitive"/>
  </g>
  <g transform="translate(84.23,82.5)" fill="#008000">
    <circle cx="0" cy="0" r="2.77" class="primitive"/>
  </g>
  <g transform="translate(84.23,45)" fill="#FFFF00">
    <circle cx="0" cy="0" r="2.77" class="primitive"/>
  </g>
  <g transform="translate(95.77,82.5)" fill="#008000">
    <circle cx="0" cy="0" r="2.77" class="primitive"/>
  </g>
  <g transform="translate(95.77,7.5)" fill="#FF0000">
    <circle cx="0" cy="0" r="2.77" class="primitive"/>
  </g>
  <g transform="translate(107.31,7.5)" fill="#FFFF00">
    <circle cx="0" cy="0" r="2.77" class="primitive"/>
  </g>
  <g transform="translate(107.31,82.5)" fill="#FFFF00">
    <circle cx="0" cy="0" r="2.77" class="primitive"/>
  </g>
  <g transform="translate(118.85,7.5)" fill="#008000">
    <circle cx="0" cy="0" r="2.77" class="primitive"/>
  </g>
  <g transform="translate(118.85,82.5)" fill="#008000">
    <circle cx="0" cy="0" r="2.77" class="primitive"/>
  </g>
  <g transform="translate(130.38,82.5)" fill="#FF0000">
    <circle cx="0" cy="0" r="2.77" class="primitive"/>
  </g>
  <g transform="translate(130.38,7.5)" fill="#FFFF00">
    <circle cx="0" cy="0" r="2.77" class="primitive"/>
  </g>
  <g transform="translate(141.92,82.5)" fill="#008000">
    <circle cx="0" cy="0" r="2.77" class="primitive"/>
  </g>
  <g transform="translate(153.46,82.5)" fill="#FF0000">
    <circle cx="0" cy="0" r="2.77" class="primitive"/>
  </g>
  <g transform="translate(26.54,32.5)" fill="#008000">
    <circle cx="0" cy="0" r="2.77" class="primitive"/>
  </g>
  <g transform="translate(38.08,32.5)" fill="#008000">
    <circle cx="0" cy="0" r="2.77" class="primitive"/>
  </g>
  <g transform="translate(38.08,57.5)" fill="#FF0000">
    <circle cx="0" cy="0" r="2.77" class="primitive"/>
  </g>
  <g transform="translate(49.62,32.5)" fill="#FFFF00">
    <circle cx="0" cy="0" r="2.77" class="primitive"/>
  </g>
  <g transform="translate(61.15,32.5)" fill="#008000">
    <circle cx="0" cy="0" r="2.77" class="primitive"/>
  </g>
  <g transform="translate(61.15,57.5)" fill="#FF0000">
    <circle cx="0" cy="0" r="2.77" class="primitive"/>
  </g>
  <g transform="translate(72.69,32.5)" fill="#008000">
    <circle cx="0" cy="0" r="2.77" class="primitive"/>
  </g>
  <g transform="translate(72.69,57.5)" fill="#008000">
    <circle cx="0" cy="0" r="2.77" class="primitive"/>
  </g>
  <g transform="translate(107.31,32.5)" fill="#FFFF00">
    <circle cx="0" cy="0" r="2.77" class="primitive"/>
  </g>
  <g transform="translate(107.31,57.5)" fill="#FFFF00">
    <circle cx="0" cy="0" r="2.77" class="primitive"/>
  </g>
  <g transform="translate(118.85,57.5)" fill="#008000">
    <circle cx="0" cy="0" r="2.77" class="primitive"/>
  </g>
  <g transform="translate(130.38,32.5)" fill="#008000">
    <circle cx="0" cy="0" r="2.77" class="primitive"/>
  </g>
  <g transform="translate(130.38,57.5)" fill="#FF0000">
    <circle cx="0" cy="0" r="2.77" class="primitive"/>
  </g>
</g>
<g font-size="4" stroke="#000000" stroke-opacity="0.000" fill="#000000" id="img-da40df16-5">
  <g transform="translate(15,7.5)">
    <g class="primitive">
      <text text-anchor="middle" dy="0.35em">[1]</text>
    </g>
  </g>
  <g transform="translate(141.92,7.5)">
    <g class="primitive">
      <text text-anchor="middle" dy="0.35em">[2]</text>
    </g>
  </g>
  <g transform="translate(15,32.5)">
    <g class="primitive">
      <text text-anchor="middle" dy="0.35em">[3]</text>
    </g>
  </g>
  <g transform="translate(141.92,32.5)">
    <g class="primitive">
      <text text-anchor="middle" dy="0.35em">[4]</text>
    </g>
  </g>
  <g transform="translate(15,57.5)">
    <g class="primitive">
      <text text-anchor="middle" dy="0.35em">[5]</text>
    </g>
  </g>
  <g transform="translate(141.92,57.5)">
    <g class="primitive">
      <text text-anchor="middle" dy="0.35em">[6]</text>
    </g>
  </g>
  <g transform="translate(15,82.5)">
    <g class="primitive">
      <text text-anchor="middle" dy="0.35em">[7]</text>
    </g>
  </g>
  <g transform="translate(165,82.5)">
    <g class="primitive">
      <text text-anchor="middle" dy="0.35em">[8]</text>
    </g>
  </g>
  <g transform="translate(26.54,7.5)">
    <g class="primitive">
      <text text-anchor="middle" dy="-0.25em">[9]<tspan x="0" dy="1.2em">3π/2</tspan></text>
    </g>
  </g>
  <g transform="translate(38.08,7.5)">
    <g class="primitive">
      <text text-anchor="middle" dy="0.35em">[10]</text>
    </g>
  </g>
  <g transform="translate(49.62,7.5)">
    <g class="primitive">
      <text text-anchor="middle" dy="-0.25em">[11]<tspan x="0" dy="1.2em">1π/2</tspan></text>
    </g>
  </g>
  <g transform="translate(26.54,82.5)">
    <g class="primitive">
      <text text-anchor="middle" dy="0.35em">[12]</text>
    </g>
  </g>
  <g transform="translate(84.23,7.5)">
    <g class="primitive">
      <text text-anchor="middle" dy="-0.25em">[13]<tspan x="0" dy="1.2em">0π/1</tspan></text>
    </g>
  </g>
  <g transform="translate(84.23,82.5)">
    <g class="primitive">
      <text text-anchor="middle" dy="-0.25em">[14]<tspan x="0" dy="1.2em">0π/1</tspan></text>
    </g>
  </g>
  <g transform="translate(84.23,45)">
    <g class="primitive">
      <text text-anchor="middle" dy="0.35em">[15]</text>
    </g>
  </g>
  <g transform="translate(95.77,82.5)">
    <g class="primitive">
      <text text-anchor="middle" dy="-0.25em">[16]<tspan x="0" dy="1.2em">0π/1</tspan></text>
    </g>
  </g>
  <g transform="translate(95.77,7.5)">
    <g class="primitive">
      <text text-anchor="middle" dy="-0.25em">[17]<tspan x="0" dy="1.2em">0π/1</tspan></text>
    </g>
  </g>
  <g transform="translate(107.31,7.5)">
    <g class="primitive">
      <text text-anchor="middle" dy="0.35em">[18]</text>
    </g>
  </g>
  <g transform="translate(107.31,82.5)">
    <g class="primitive">
      <text text-anchor="middle" dy="0.35em">[19]</text>
    </g>
  </g>
  <g transform="translate(118.85,7.5)">
    <g class="primitive">
      <text text-anchor="middle" dy="-0.25em">[20]<tspan x="0" dy="1.2em">1π/4</tspan></text>
    </g>
  </g>
  <g transform="translate(118.85,82.5)">
    <g class="primitive">
      <text text-anchor="middle" dy="-0.25em">[21]<tspan x="0" dy="1.2em">3π/2</tspan></text>
    </g>
  </g>
  <g transform="translate(130.38,82.5)">
    <g class="primitive">
      <text text-anchor="middle" dy="-0.25em">[22]<tspan x="0" dy="1.2em">1π/1</tspan></text>
    </g>
  </g>
  <g transform="translate(130.38,7.5)">
    <g class="primitive">
      <text text-anchor="middle" dy="0.35em">[23]</text>
    </g>
  </g>
  <g transform="translate(141.92,82.5)">
    <g class="primitive">
      <text text-anchor="middle" dy="-0.25em">[24]<tspan x="0" dy="1.2em">1π/2</tspan></text>
    </g>
  </g>
  <g transform="translate(153.46,82.5)">
    <g class="primitive">
      <text text-anchor="middle" dy="-0.25em">[25]<tspan x="0" dy="1.2em">1π/1</tspan></text>
    </g>
  </g>
  <g transform="translate(26.54,32.5)">
    <g class="primitive">
      <text text-anchor="middle" dy="-0.25em">[26]<tspan x="0" dy="1.2em">1π/2</tspan></text>
    </g>
  </g>
  <g transform="translate(38.08,32.5)">
    <g class="primitive">
      <text text-anchor="middle" dy="-0.25em">[27]<tspan x="0" dy="1.2em">0π/1</tspan></text>
    </g>
  </g>
  <g transform="translate(38.08,57.5)">
    <g class="primitive">
      <text text-anchor="middle" dy="-0.25em">[28]<tspan x="0" dy="1.2em">0π/1</tspan></text>
    </g>
  </g>
  <g transform="translate(49.62,32.5)">
    <g class="primitive">
      <text text-anchor="middle" dy="0.35em">[29]</text>
    </g>
  </g>
  <g transform="translate(61.15,32.5)">
    <g class="primitive">
      <text text-anchor="middle" dy="-0.25em">[30]<tspan x="0" dy="1.2em">0π/1</tspan></text>
    </g>
  </g>
  <g transform="translate(61.15,57.5)">
    <g class="primitive">
      <text text-anchor="middle" dy="-0.25em">[31]<tspan x="0" dy="1.2em">0π/1</tspan></text>
    </g>
  </g>
  <g transform="translate(72.69,32.5)">
    <g class="primitive">
      <text text-anchor="middle" dy="-0.25em">[32]<tspan x="0" dy="1.2em">1π/4</tspan></text>
    </g>
  </g>
  <g transform="translate(72.69,57.5)">
    <g class="primitive">
      <text text-anchor="middle" dy="-0.25em">[33]<tspan x="0" dy="1.2em">1π/2</tspan></text>
    </g>
  </g>
  <g transform="translate(107.31,32.5)">
    <g class="primitive">
      <text text-anchor="middle" dy="0.35em">[34]</text>
    </g>
  </g>
  <g transform="translate(107.31,57.5)">
    <g class="primitive">
      <text text-anchor="middle" dy="0.35em">[35]</text>
    </g>
  </g>
  <g transform="translate(118.85,57.5)">
    <g class="primitive">
      <text text-anchor="middle" dy="-0.25em">[36]<tspan x="0" dy="1.2em">1π/2</tspan></text>
    </g>
  </g>
  <g transform="translate(130.38,32.5)">
    <g class="primitive">
      <text text-anchor="middle" dy="-0.25em">[37]<tspan x="0" dy="1.2em">0π/1</tspan></text>
    </g>
  </g>
  <g transform="translate(130.38,57.5)">
    <g class="primitive">
      <text text-anchor="middle" dy="-0.25em">[38]<tspan x="0" dy="1.2em">0π/1</tspan></text>
    </g>
  </g>
</g>
</svg>
