<?xml version="1.0" encoding="UTF-8"?>
<svg xmlns="http://www.w3.org/2000/svg"
     xmlns:xlink="http://www.w3.org/1999/xlink"
     version="1.2"
     width="390mm" height="90mm" viewBox="0 0 390 90"
     stroke="none"
     fill="#000000"
     stroke-width="0.3"
     font-size="3.88"
>
<defs>
  <marker id="arrow" markerWidth="15" markerHeight="7" refX="5" refY="3.5" orient="auto" markerUnits="strokeWidth">
    <path d="M0,0 L15,3.5 L0,7 z" stroke="context-stroke" fill="context-stroke"/>
  </marker>
</defs>
<g stroke-width="0.49" fill="#000000" fill-opacity="0.000" stroke="#D3D3D3" id="img-80556ec0-1">
  <g transform="translate(45,7.5)">
    <path fill="none" d="M-6.25,0 L 6.25 0" class="primitive"/>
  </g>
  <g transform="translate(295,7.5)">
    <path fill="none" d="M6.25,0 L -6.25 0" class="primitive"/>
  </g>
  <g transform="translate(45,32.5)">
    <path fill="none" d="M-6.25,0 L 6.25 0" class="primitive"/>
  </g>
  <g transform="translate(295,32.5)">
    <path fill="none" d="M6.25,0 L -6.25 0" class="primitive"/>
  </g>
  <g transform="translate(57.5,57.5)">
    <path fill="none" d="M-18.75,0 L 18.75 0" class="primitive"/>
  </g>
  <g transform="translate(295,57.5)">
    <path fill="none" d="M6.25,0 L -6.25 0" class="primitive"/>
  </g>
  <g transform="translate(45,82.5)">
    <path fill="none" d="M-6.25,0 L 6.25 0" class="primitive"/>
  </g>
  <g transform="translate(345,82.5)">
    <path fill="none" d="M6.25,0 L -6.25 0" class="primitive"/>
  </g>
  <g transform="translate(70,7.5)">
    <path fill="none" d="M-6.25,0 L 6.25 0" class="primitive"/>
  </g>
  <g transform="translate(95,7.5)">
    <path fill="none" d="M-6.25,0 L 6.25 0" class="primitive"/>
  </g>
  <g transform="translate(145,7.5)">
    <path fill="none" d="M-31.25,0 L 31.25 0" class="primitive"/>
  </g>
  <g transform="translate(120,82.5)">
    <path fill="none" d="M-56.25,0 L 56.25 0" class="primitive"/>
  </g>
  <g transform="translate(182.5,26.25)">
    <path fill="none" d="M0,-17.31 L 0 17.31" class="primitive"/>
  </g>
  <g transform="translate(195,7.5)">
    <path fill="none" d="M-6.25,0 L 6.25 0" class="primitive"/>
  </g>
  <g transform="translate(182.5,63.75)">
    <path fill="none" d="M0,17.31 L 0 -17.31" class="primitive"/>
  </g>
  <g transform="translate(195,82.5)">
    <path fill="none" d="M-6.25,0 L 6.25 0" class="primitive"/>
  </g>
  <g transform="translate(207.5,45)">
    <path fill="none" d="M0,36.06 L 0 -36.06" class="primitive"/>
  </g>
  <g transform="translate(220,82.5)">
    <path fill="none" d="M-6.25,0 L 6.25 0" class="primitive"/>
  </g>
  <g transform="translate(220,7.5)">
    <path fill="none" d="M-6.25,0 L 6.25 0" class="primitive"/>
  </g>
  <g transform="translate(245,7.5)">
    <path fill="none" d="M-6.25,0 L 6.25 0" class="primitive"/>
  </g>
  <g transform="translate(245,82.5)">
    <path fill="none" d="M-6.25,0 L 6.25 0" class="primitive"/>
  </g>
  <g transform="translate(270,7.5)">
    <path fill="none" d="M-6.25,0 L 6.25 0" class="primitive"/>
  </g>
  <g transform="translate(270,82.5)">
    <path fill="none" d="M-6.25,0 L 6.25 0" class="primitive"/>
  </g>
  <g transform="translate(295,82.5)">
    <path fill="none" d="M-6.25,0 L 6.25 0" class="primitive"/>
  </g>
  <g transform="translate(320,82.5)">
    <path fill="none" d="M-6.25,0 L 6.25 0" class="primitive"/>
  </g>
  <g transform="translate(70,32.5)">
    <path fill="none" d="M-6.25,0 L 6.25 0" class="primitive"/>
  </g>
  <g transform="translate(82.5,45)">
    <path fill="none" d="M0,-11.06 L 0 11.06" class="primitive"/>
  </g>
  <g transform="translate(95,32.5)">
    <path fill="none" d="M-6.25,0 L 6.25 0" class="primitive"/>
  </g>
  <g transform="translate(107.5,57.5)">
    <path fill="none" d="M-18.75,0 L 18.75 0" class="primitive"/>
  </g>
  <g transform="translate(120,32.5)">
    <path fill="none" d="M-6.25,0 L 6.25 0" class="primitive"/>
  </g>
  <g transform="translate(132.5,45)">
    <path fill="none" d="M0,-11.06 L 0 11.06" class="primitive"/>
  </g>
  <g transform="translate(145,32.5)">
    <path fill="none" d="M-6.25,0 L 6.25 0" class="primitive"/>
  </g>
  <g transform="translate(145,57.5)">
    <path fill="none" d="M-6.25,0 L 6.25 0" class="primitive"/>
  </g>
  <g transform="translate(195,32.5)">
    <path fill="none" d="M-31.25,0 L 31.25 0" class="primitive"/>
  </g>
  <g transform="translate(195,57.5)">
    <path fill="none" d="M-31.25,0 L 31.25 0" class="primitive"/>
  </g>
  <g transform="translate(257.5,32.5)">
    <path fill="none" d="M-18.75,0 L 18.75 0" class="primitive"/>
  </g>
  <g transform="translate(245,57.5)">
    <path fill="none" d="M-6.25,0 L 6.25 0" class="primitive"/>
  </g>
  <g transform="translate(270,57.5)">
    <path fill="none" d="M-6.25,0 L 6.25 0" class="primitive"/>
  </g>
  <g transform="translate(282.5,45)">
    <path fill="none" d="M0,-11.06 L 0 11.06" class="primitive"/>
  </g>
</g>
<g stroke-width="0.49" stroke="#D3D3D3" id="img-80556ec0-2">
</g>
<g font-size="4" stroke="#000000" stroke-opacity="0.000" fill="#000000" id="img-80556ec0-3">
  <g transform="translate(45,7.5)">
    <g class="primitive">
      <text text-anchor="middle" dy="0.35em"></text>
    </g>
  </g>
  <g transform="translate(295,7.5)">
    <g class="primitive">
      <text text-anchor="middle" dy="0.35em"></text>
    </g>
  </g>
  <g transform="translate(45,32.5)">
    <g class="primitive">
      <text text-anchor="middle" dy="0.35em"></text>
    </g>
  </g>
  <g transform="translate(295,32.5)">
    <g class="primitive">
      <text text-anchor="middle" dy="0.35em"></text>
    </g>
  </g>
  <g transform="translate(57.5,57.5)">
    <g class="primitive">
      <text text-anchor="middle" dy="0.35em"></text>
    </g>
  </g>
  <g transform="translate(295,57.5)">
    <g class="primitive">
      <text text-anchor="middle" dy="0.35em"></text>
    </g>
  </g>
  <g transform="translate(45,82.5)">
    <g class="primitive">
      <text text-anchor="middle" dy="0.35em"></text>
    </g>
  </g>
  <g transform="translate(345,82.5)">
    <g class="primitive">
      <text text-anchor="middle" dy="0.35em"></text>
    </g>
  </g>
  <g transform="translate(70,7.5)">
    <g class="primitive">
      <text text-anchor="middle" dy="0.35em"></text>
    </g>
  </g>
  <g transform="translate(95,7.5)">
    <g class="primitive">
      <text text-anchor="middle" dy="0.35em"></text>
    </g>
  </g>
  <g transform="translate(145,7.5)">
    <g class="primitive">
      <text text-anchor="middle" dy="0.35em"></text>
    </g>
  </g>
  <g transform="translate(120,82.5)">
    <g class="primitive">
      <text text-anchor="middle" dy="0.35em"></text>
    </g>
  </g>
  <g transform="translate(182.5,26.25)">
    <g class="primitive">
      <text text-anchor="middle" dy="0.35em"></text>
    </g>
  </g>
  <g transform="translate(195,7.5)">
    <g class="primitive">
      <text text-anchor="middle" dy="0.35em"></text>
    </g>
  </g>
  <g transform="translate(182.5,63.75)">
    <g class="primitive">
      <text text-anchor="middle" dy="0.35em"></text>
    </g>
  </g>
  <g transform="translate(195,82.5)">
    <g class="primitive">
      <text text-anchor="middle" dy="0.35em"></text>
    </g>
  </g>
  <g transform="translate(207.5,45)">
    <g class="primitive">
      <text text-anchor="middle" dy="0.35em"></text>
    </g>
  </g>
  <g transform="translate(220,82.5)">
    <g class="primitive">
      <text text-anchor="middle" dy="0.35em"></text>
    </g>
  </g>
  <g transform="translate(220,7.5)">
    <g class="primitive">
      <text text-anchor="middle" dy="0.35em"></text>
    </g>
  </g>
  <g transform="translate(245,7.5)">
    <g class="primitive">
      <text text-anchor="middle" dy="0.35em"></text>
    </g>
  </g>
  <g transform="translate(245,82.5)">
    <g class="primitive">
      <text text-anchor="middle" dy="0.35em"></text>
    </g>
  </g>
  <g transform="translate(270,7.5)">
    <g class="primitive">
      <text text-anchor="middle" dy="0.35em"></text>
    </g>
  </g>
  <g transform="translate(270,82.5)">
    <g class="primitive">
      <text text-anchor="middle" dy="0.35em"></text>
    </g>
  </g>
  <g transform="translate(295,82.5)">
    <g class="primitive">
      <text text-anchor="middle" dy="0.35em"></text>
    </g>
  </g>
  <g transform="translate(320,82.5)">
    <g class="primitive">
      <text text-anchor="middle" dy="0.35em"></text>
    </g>
  </g>
  <g transform="translate(70,32.5)">
    <g class="primitive">
      <text text-anchor="middle" dy="0.35em"></text>
    </g>
  </g>
  <g transform="translate(82.5,45)">
    <g class="primitive">
      <text text-anchor="middle" dy="0.35em"></text>
    </g>
  </g>
  <g transform="translate(95,32.5)">
    <g class="primitive">
      <text text-anchor="middle" dy="0.35em"></text>
    </g>
  </g>
  <g transform="translate(107.5,57.5)">
    <g class="primitive">
      <text text-anchor="middle" dy="0.35em"></text>
    </g>
  </g>
  <g transform="translate(120,32.5)">
    <g class="primitive">
      <text text-anchor="middle" dy="0.35em"></text>
    </g>
  </g>
  <g transform="translate(132.5,45)">
    <g class="primitive">
      <text text-anchor="middle" dy="0.35em"></text>
    </g>
  </g>
  <g transform="translate(145,32.5)">
    <g class="primitive">
      <text text-anchor="middle" dy="0.35em"></text>
    </g>
  </g>
  <g transform="translate(145,57.5)">
    <g class="primitive">
      <text text-anchor="middle" dy="0.35em"></text>
    </g>
  </g>
  <g transform="translate(195,32.5)">
    <g class="primitive">
      <text text-anchor="middle" dy="0.35em"></text>
    </g>
  </g>
  <g transform="translate(195,57.5)">
    <g class="primitive">
      <text text-anchor="middle" dy="0.35em"></text>
    </g>
  </g>
  <g transform="translate(257.5,32.5)">
    <g class="primitive">
      <text text-anchor="middle" dy="0.35em"></text>
    </g>
  </g>
  <g transform="translate(245,57.5)">
    <g class="primitive">
      <text text-anchor="middle" dy="0.35em"></text>
    </g>
  </g>
  <g transform="translate(270,57.5)">
    <g class="primitive">
      <text text-anchor="middle" dy="0.35em"></text>
    </g>
  </g>
  <g transform="translate(282.5,45)">
    <g class="primitive">
      <text text-anchor="middle" dy="0.35em"></text>
    </g>
  </g>
</g>
<g stroke-width="0" stroke="#000000" stroke-opacity="0.000" id="img-80556ec0-4">
  <g transform="translate(32.5,7.5)" fill="#ADD8E6">
    <circle cx="0" cy="0" r="6" class="primitive"/>
  </g>
  <g transform="translate(307.5,7.5)" fill="#808080">
    <circle cx="0" cy="0" r="6" class="primitive"/>
  </g>
  <g transform="translate(32.5,32.5)" fill="#ADD8E6">
    <circle cx="0" cy="0" r="6" class="primitive"/>
  </g>
  <g transform="translate(307.5,32.5)" fill="#808080">
    <circle cx="0" cy="0" r="6" class="primitive"/>
  </g>
  <g transform="translate(32.5,57.5)" fill="#ADD8E6">
    <circle cx="0" cy="0" r="6" class="primitive"/>
  </g>
  <g transform="translate(307.5,57.5)" fill="#808080">
    <circle cx="0" cy="0" r="6" class="primitive"/>
  </g>
  <g transform="translate(32.5,82.5)" fill="#ADD8E6">
    <circle cx="0" cy="0" r="6" class="primitive"/>
  </g>
  <g transform="translate(357.5,82.5)" fill="#808080">
    <circle cx="0" cy="0" r="6" class="primitive"/>
  </g>
  <g transform="translate(57.5,7.5)" fill="#008000">
    <circle cx="0" cy="0" r="6" class="primitive"/>
  </g>
  <g transform="translate(82.5,7.5)" fill="#FFFF00">
    <circle cx="0" cy="0" r="6" class="primitive"/>
  </g>
  <g transform="translate(107.5,7.5)" fill="#008000">
    <circle cx="0" cy="0" r="6" class="primitive"/>
  </g>
  <g transform="translate(57.5,82.5)" fill="#FFFF00">
    <circle cx="0" cy="0" r="6" class="primitive"/>
  </g>
  <g transform="translate(182.5,7.5)" fill="#008000">
    <circle cx="0" cy="0" r="6" class="primitive"/>
  </g>
  <g transform="translate(182.5,82.5)" fill="#008000">
    <circle cx="0" cy="0" r="6" class="primitive"/>
  </g>
  <g transform="translate(182.5,45)" fill="#FFFF00">
    <circle cx="0" cy="0" r="6" class="primitive"/>
  </g>
  <g transform="translate(207.5,82.5)" fill="#008000">
    <circle cx="0" cy="0" r="6" class="primitive"/>
  </g>
  <g transform="translate(207.5,7.5)" fill="#FF0000">
    <circle cx="0" cy="0" r="6" class="primitive"/>
  </g>
  <g transform="translate(232.5,7.5)" fill="#FFFF00">
    <circle cx="0" cy="0" r="6" class="primitive"/>
  </g>
  <g transform="translate(232.5,82.5)" fill="#FFFF00">
    <circle cx="0" cy="0" r="6" class="primitive"/>
  </g>
  <g transform="translate(257.5,7.5)" fill="#008000">
    <circle cx="0" cy="0" r="6" class="primitive"/>
  </g>
  <g transform="translate(257.5,82.5)" fill="#008000">
    <circle cx="0" cy="0" r="6" class="primitive"/>
  </g>
  <g transform="translate(282.5,82.5)" fill="#FF0000">
    <circle cx="0" cy="0" r="6" class="primitive"/>
  </g>
  <g transform="translate(282.5,7.5)" fill="#FFFF00">
    <circle cx="0" cy="0" r="6" class="primitive"/>
  </g>
  <g transform="translate(307.5,82.5)" fill="#008000">
    <circle cx="0" cy="0" r="6" class="primitive"/>
  </g>
  <g transform="translate(332.5,82.5)" fill="#FF0000">
    <circle cx="0" cy="0" r="6" class="primitive"/>
  </g>
  <g transform="translate(57.5,32.5)" fill="#008000">
    <circle cx="0" cy="0" r="6" class="primitive"/>
  </g>
  <g transform="translate(82.5,32.5)" fill="#008000">
    <circle cx="0" cy="0" r="6" class="primitive"/>
  </g>
  <g transform="translate(82.5,57.5)" fill="#FF0000">
    <circle cx="0" cy="0" r="6" class="primitive"/>
  </g>
  <g transform="translate(107.5,32.5)" fill="#FFFF00">
    <circle cx="0" cy="0" r="6" class="primitive"/>
  </g>
  <g transform="translate(132.5,32.5)" fill="#008000">
    <circle cx="0" cy="0" r="6" class="primitive"/>
  </g>
  <g transform="translate(132.5,57.5)" fill="#FF0000">
    <circle cx="0" cy="0" r="6" class="primitive"/>
  </g>
  <g transform="translate(157.5,32.5)" fill="#008000">
    <circle cx="0" cy="0" r="6" class="primitive"/>
  </g>
  <g transform="translate(157.5,57.5)" fill="#008000">
    <circle cx="0" cy="0" r="6" class="primitive"/>
  </g>
  <g transform="translate(232.5,32.5)" fill="#FFFF00">
    <circle cx="0" cy="0" r="6" class="primitive"/>
  </g>
  <g transform="translate(232.5,57.5)" fill="#FFFF00">
    <circle cx="0" cy="0" r="6" class="primitive"/>
  </g>
  <g transform="translate(257.5,57.5)" fill="#008000">
    <circle cx="0" cy="0" r="6" class="primitive"/>
  </g>
  <g transform="translate(282.5,32.5)" fill="#008000">
    <circle cx="0" cy="0" r="6" class="primitive"/>
  </g>
  <g transform="translate(282.5,57.5)" fill="#FF0000">
    <circle cx="0" cy="0" r="6" class="primitive"/>
  </g>
</g>
<g font-size="4" stroke="#000000" stroke-opacity="0.000" fill="#000000" id="img-80556ec0-5">
  <g transform="translate(32.5,7.5)">
    <g class="primitive">
      <text text-anchor="middle" dy="0.35em">[1]</text>
    </g>
  </g>
  <g transform="translate(307.5,7.5)">
    <g class="primitive">
      <text text-anchor="middle" dy="0.35em">[2]</text>
    </g>
  </g>
  <g transform="translate(32.5,32.5)">
    <g class="primitive">
      <text text-anchor="middle" dy="0.35em">[3]</text>
    </g>
  </g>
  <g transform="translate(307.5,32.5)">
    <g class="primitive">
      <text text-anchor="middle" dy="0.35em">[4]</text>
    </g>
  </g>
  <g transform="translate(32.5,57.5)">
    <g class="primitive">
      <text text-anchor="middle" dy="0.35em">[5]</text>
    </g>
  </g>
  <g transform="translate(307.5,57.5)">
    <g class="primitive">
      <text text-anchor="middle" dy="0.35em">[6]</text>
    </g>
  </g>
  <g transform="translate(32.5,82.5)">
    <g class="primitive">
      <text text-anchor="middle" dy="0.35em">[7]</text>
    </g>
  </g>
  <g transform="translate(357.5,82.5)">
    <g class="primitive">
      <text text-anchor="middle" dy="0.35em">[8]</text>
    </g>
  </g>
  <g transform="translate(57.5,7.5)">
    <g class="primitive">
      <text text-anchor="middle" dy="-0.25em">[9]<tspan x="0" dy="1.2em">3π/2</tspan></text>
    </g>
  </g>
  <g transform="translate(82.5,7.5)">
    <g class="primitive">
      <text text-anchor="middle" dy="0.35em">[10]</text>
    </g>
  </g>
  <g transform="translate(107.5,7.5)">
    <g class="primitive">
      <text text-anchor="middle" dy="-0.25em">[11]<tspan x="0" dy="1.2em">1π/2</tspan></text>
    </g>
  </g>
  <g transform="translate(57.5,82.5)">
    <g class="primitive">
      <text text-anchor="middle" dy="0.35em">[12]</text>
    </g>
  </g>
  <g transform="translate(182.5,7.5)">
    <g class="primitive">
      <text text-anchor="middle" dy="-0.25em">[13]<tspan x="0" dy="1.2em">0π/1</tspan></text>
    </g>
  </g>
  <g transform="translate(182.5,82.5)">
    <g class="primitive">
      <text text-anchor="middle" dy="-0.25em">[14]<tspan x="0" dy="1.2em">0π/1</tspan></text>
    </g>
  </g>
  <g transform="translate(182.5,45)">
    <g class="primitive">
      <text text-anchor="middle" dy="0.35em">[15]</text>
    </g>
  </g>
  <g transform="translate(207.5,82.5)">
    <g class="primitive">
      <text text-anchor="middle" dy="-0.25em">[16]<tspan x="0" dy="1.2em">0π/1</tspan></text>
    </g>
  </g>
  <g transform="translate(207.5,7.5)">
    <g class="primitive">
      <text text-anchor="middle" dy="-0.25em">[17]<tspan x="0" dy="1.2em">0π/1</tspan></text>
    </g>
  </g>
  <g transform="translate(232.5,7.5)">
    <g class="primitive">
      <text text-anchor="middle" dy="0.35em">[18]</text>
    </g>
  </g>
  <g transform="translate(232.5,82.5)">
    <g class="primitive">
      <text text-anchor="middle" dy="0.35em">[19]</text>
    </g>
  </g>
  <g transform="translate(257.5,7.5)">
    <g class="primitive">
      <text text-anchor="middle" dy="-0.25em">[20]<tspan x="0" dy="1.2em">1π/4</tspan></text>
    </g>
  </g>
  <g transform="translate(257.5,82.5)">
    <g class="primitive">
      <text text-anchor="middle" dy="-0.25em">[21]<tspan x="0" dy="1.2em">3π/2</tspan></text>
    </g>
  </g>
  <g transform="translate(282.5,82.5)">
    <g class="primitive">
      <text text-anchor="middle" dy="-0.25em">[22]<tspan x="0" dy="1.2em">1π/1</tspan></text>
    </g>
  </g>
  <g transform="translate(282.5,7.5)">
    <g class="primitive">
      <text text-anchor="middle" dy="0.35em">[23]</text>
    </g>
  </g>
  <g transform="translate(307.5,82.5)">
    <g class="primitive">
      <text text-anchor="middle" dy="-0.25em">[24]<tspan x="0" dy="1.2em">1π/2</tspan></text>
    </g>
  </g>
  <g transform="translate(332.5,82.5)">
    <g class="primitive">
      <text text-anchor="middle" dy="-0.25em">[25]<tspan x="0" dy="1.2em">1π/1</tspan></text>
    </g>
  </g>
  <g transform="translate(57.5,32.5)">
    <g class="primitive">
      <text text-anchor="middle" dy="-0.25em">[26]<tspan x="0" dy="1.2em">1π/2</tspan></text>
    </g>
  </g>
  <g transform="translate(82.5,32.5)">
    <g class="primitive">
      <text text-anchor="middle" dy="-0.25em">[27]<tspan x="0" dy="1.2em">0π/1</tspan></text>
    </g>
  </g>
  <g transform="translate(82.5,57.5)">
    <g class="primitive">
      <text text-anchor="middle" dy="-0.25em">[28]<tspan x="0" dy="1.2em">0π/1</tspan></text>
    </g>
  </g>
  <g transform="translate(107.5,32.5)">
    <g class="primitive">
      <text text-anchor="middle" dy="0.35em">[29]</text>
    </g>
  </g>
  <g transform="translate(132.5,32.5)">
    <g class="primitive">
      <text text-anchor="middle" dy="-0.25em">[30]<tspan x="0" dy="1.2em">0π/1</tspan></text>
    </g>
  </g>
  <g transform="translate(132.5,57.5)">
    <g class="primitive">
      <text text-anchor="middle" dy="-0.25em">[31]<tspan x="0" dy="1.2em">0π/1</tspan></text>
    </g>
  </g>
  <g transform="translate(157.5,32.5)">
    <g class="primitive">
      <text text-anchor="middle" dy="-0.25em">[32]<tspan x="0" dy="1.2em">1π/4</tspan></text>
    </g>
  </g>
  <g transform="translate(157.5,57.5)">
    <g class="primitive">
      <text text-anchor="middle" dy="-0.25em">[33]<tspan x="0" dy="1.2em">1π/2</tspan></text>
    </g>
  </g>
  <g transform="translate(232.5,32.5)">
    <g class="primitive">
      <text text-anchor="middle" dy="0.35em">[34]</text>
    </g>
  </g>
  <g transform="translate(232.5,57.5)">
    <g class="primitive">
      <text text-anchor="middle" dy="0.35em">[35]</text>
    </g>
  </g>
  <g transform="translate(257.5,57.5)">
    <g class="primitive">
      <text text-anchor="middle" dy="-0.25em">[36]<tspan x="0" dy="1.2em">1π/2</tspan></text>
    </g>
  </g>
  <g transform="translate(282.5,32.5)">
    <g class="primitive">
      <text text-anchor="middle" dy="-0.25em">[37]<tspan x="0" dy="1.2em">0π/1</tspan></text>
    </g>
  </g>
  <g transform="translate(282.5,57.5)">
    <g class="primitive">
      <text text-anchor="middle" dy="-0.25em">[38]<tspan x="0" dy="1.2em">0π/1</tspan></text>
    </g>
  </g>
</g>
</svg>
